<?xml version="1.0" encoding="utf-8"?>
<!-- Generator: Adobe Illustrator 22.0.0, SVG Export Plug-In . SVG Version: 6.00 Build 0)  -->
<svg version="1.1" id="Слой_1" xmlns="http://www.w3.org/2000/svg" xmlns:xlink="http://www.w3.org/1999/xlink" x="0px" y="0px"
	 viewBox="0 0 338.8 125.1" style="enable-background:new 0 0 338.8 125.1;" xml:space="preserve">
<style type="text/css">
	.st0{fill:#fa8804;}
</style>
<title>arrow2</title>
<g id="Слой_2_1_">
	<g id="Capa_1">
		<path class="st0" d="M12.5,50.1h279.6l-34.7-28.7c-4.9-4.9-4.9-12.8,0-17.7s12.8-4.9,17.7,0l0,0l60,50c4.9,4.9,4.9,12.8,0,17.6
			l0,0l-60,50c-2.3,2.3-5.5,3.7-8.8,3.7s-6.5-1.3-8.8-3.7c-4.9-4.9-4.9-12.8,0-17.6l0,0L292.2,75H12.5C5.6,75,0,69.4,0,62.5
			S5.6,50.1,12.5,50.1L12.5,50.1z"/>
	</g>
</g>
</svg>
